#!OML:ASF X:\für Bonn\!DataBase\2005_08_10_Bjorn_Final\c3d\bjorn.ASF
:FULLY-SPECIFIED
:DEGREES
166
root 16.2697 17.6602 0.0264301 1092.95 -64.7475 -331.892
lowerback 62.2789 -0.22718 11.196
upperback 20.6829 2.96615 -0.589437
thorax 2.72602 1.95808 -6.46616
lowerneck 9.64473 -6.49494 12.3612
upperneck -19.6587 -7.71444 -3.44064
head -8.33899 -4.39911 -2.34855
rclavicle 6.36111e-015 -3.65764e-014
rhumerus 77.4846 -3.76098 -59.7772
rradius 3.89956
rwrist -0.235067
rhand -50.8938 42.7673
rfingers 7.12502
rthumb -23.4468 14.1759
lclavicle 6.36111e-015 -3.65764e-014
lhumerus -6.19506 -26.3096 89.0647
lradius 50.2608
lwrist 0.945348
lhand -28.8733 -15.9647
lfingers 7.12502
lthumb -2.22934 14.0034
rfemur -78.3072 -18.2102 15.126
rtibia 63.4338
rfoot -18.485 9.30667
rtoes -5.58476
lfemur -74.1898 -3.98921 -24.6207
ltibia 56.0384
lfoot -12.5195 -9.59902
ltoes -4.78004
167
root 16.2611 17.6609 0.0275432 1092.96 -64.7197 -331.929
lowerback 62.3782 -0.229302 11.2244
upperback 20.6672 2.99057 -0.580677
thorax 2.71446 1.97018 -6.47405
lowerneck 9.54353 -6.52136 12.3603
upperneck -19.5916 -7.75531 -3.39704
head -8.30006 -4.42261 -2.33233
rclavicle -6.99722e-014 4.13472e-014
rhumerus 77.446 -3.61152 -59.1752
rradius 3.97959
rwrist 0.515952
rhand -50.7959 42.8158
rfingers 7.12502
rthumb -23.3528 14.2124
lclavicle -6.99722e-014 4.13472e-014
lhumerus -6.20002 -26.4473 89.0334
lradius 50.2763
lwrist 0.964855
lhand -28.8226 -15.9441
lfingers 7.12502
lthumb -2.1804 14.0245
rfemur -78.2339 -18.2046 15.1142
rtibia 63.4449
rfoot -18.5502 9.27897
rtoes -5.73691
lfemur -74.142 -3.99561 -24.602
ltibia 56.0601
lfoot -12.5626 -9.61862
ltoes -4.8047
168
root 16.2528 17.6612 0.0291247 1092.91 -64.7043 -331.91
lowerback 62.493 -0.222876 11.2393
upperback 20.6368 3.02172 -0.564839
thorax 2.68527 1.98198 -6.47068
lowerneck 9.48035 -6.5525 12.3167
upperneck -19.5356 -7.80292 -3.34245
head -8.26977 -4.44686 -2.30378
rclavicle -9.22361e-014 -2.54444e-014
rhumerus 77.4001 -3.47485 -58.5428
rradius 4.01961
rwrist 1.52782
rhand -50.7893 42.7102
rfingers 7.12502
rthumb -23.3465 14.106
lclavicle -9.22361e-014 -2.54444e-014
lhumerus -6.22464 -26.606 89.0202
lradius 50.2987
lwrist 1.03536
lhand -28.8019 -15.9445
lfingers 7.12502
lthumb -2.16041 14.0243
rfemur -78.1629 -18.2015 15.0766
rtibia 63.4603
rfoot -18.6209 9.26691
rtoes -5.66459
lfemur -74.0846 -3.99482 -24.6178
ltibia 56.0788
lfoot -12.6 -9.65223
ltoes -4.73462
169
root 16.2446 17.6617 0.0309126 1092.89 -64.6803 -331.892
lowerback 62.5928 -0.231151 11.2662
upperback 20.6258 3.0383 -0.560031
thorax 2.67842 1.99182 -6.47945
lowerneck 9.33975 -6.56006 12.2961
upperneck -19.4667 -7.82348 -3.28494
head -8.21996 -4.46122 -2.28365
rclavicle 8.5875e-014 4.29375e-014
rhumerus 77.4062 -3.39741 -57.9109
rradius 4.06786
rwrist 2.5709
rhand -50.6317 42.6309
rfingers 7.12502
rthumb -23.1953 14.0076
lclavicle 8.5875e-014 4.29375e-014
lhumerus -6.20322 -26.7941 88.941
lradius 50.3402
lwrist 1.11951
lhand -28.8362 -15.9052
lfingers 7.12502
lthumb -2.1935 14.0633
rfemur -78.1081 -18.1883 15.0264
rtibia 63.4732
rfoot -18.6676 9.24385
rtoes -5.60369
lfemur -74.0525 -4.01783 -24.608
ltibia 56.0981
lfoot -12.617 -9.66349
ltoes -4.45585
170
root 16.237 17.6613 0.0326669 1092.84 -64.6752 -331.878
lowerback 62.7186 -0.2117 11.2482
upperback 20.6191 3.06193 -0.529013
thorax 2.67191 1.99671 -6.44228
lowerneck 9.18752 -6.56107 12.2315
upperneck -19.4008 -7.84762 -3.23778
head -8.16747 -4.47385 -2.26017
rclavicle 9.54166e-015 1.27222e-014
rhumerus 77.4802 -3.31637 -57.2371
rradius 4.07032
rwrist 3.79844
rhand -50.3536 42.2696
rfingers 7.12502
rthumb -22.9284 13.6129
lclavicle 9.54166e-015 1.27222e-014
lhumerus -6.14675 -26.8726 88.918
lradius 50.3209
lwrist 1.13672
lhand -28.9132 -15.9027
lfingers 7.12502
lthumb -2.26786 14.065
rfemur -78.0401 -18.1791 14.9909
rtibia 63.4925
rfoot -18.7435 9.22843
rtoes -5.7663
lfemur -73.9945 -4.01676 -24.6154
ltibia 56.1171
lfoot -12.6432 -9.67687
ltoes -4.45185
171
root 16.2293 17.6619 0.0343736 1092.77 -64.6543 -331.836
lowerback 62.8517 -0.20211 11.2314
upperback 20.6232 3.07564 -0.488492
thorax 2.67694 1.99697 -6.39104
lowerneck 9.04127 -6.55852 12.1445
upperneck -19.3713 -7.87196 -3.19353
head -8.12727 -4.48608 -2.23369
rclavicle -6.36111e-014 9.85972e-014
rhumerus 77.5891 -3.24525 -56.5455
rradius 4.08174
rwrist 5.04562
rhand -49.889 41.9286
rfingers 7.12502
rthumb -22.4825 13.2173
lclavicle -6.36111e-014 9.85972e-014
lhumerus -6.08397 -26.9665 88.8878
lradius 50.3493
lwrist 1.19824
lhand -29.0225 -15.8501
lfingers 7.12502
lthumb -2.37344 14.1164
rfemur -77.9563 -18.1703 14.932
rtibia 63.5083
rfoot -18.8131 9.17535
rtoes -5.9377
lfemur -73.9288 -4.03874 -24.629
ltibia 56.1349
lfoot -12.6895 -9.68011
ltoes -4.46007
172
root 16.2223 17.6613 0.0365086 1092.71 -64.6318 -331.784
lowerback 62.9786 -0.195757 11.2043
upperback 20.6096 3.08428 -0.447635
thorax 2.6598 1.99225 -6.3339
lowerneck 8.92099 -6.55259 12.0691
upperneck -19.3627 -7.88876 -3.16166
head -8.09916 -4.49458 -2.21311
rclavicle -1.59028e-014 9.38264e-014
rhumerus 77.7388 -3.17923 -55.8349
rradius 4.04318
rwrist 6.37659
rhand -49.3925 41.5129
rfingers 7.12502
rthumb -22.0059 12.7448
lclavicle -1.59028e-014 9.38264e-014
lhumerus -6.03776 -27.061 88.8484
lradius 50.3783
lwrist 1.28958
lhand -29.1343 -15.8036
lfingers 7.12502
lthumb -2.48146 14.1617
rfemur -77.9157 -18.177 14.878
rtibia 63.5283
rfoot -18.8525 9.16615
rtoes -5.89415
lfemur -73.9004 -4.06423 -24.6513
ltibia 56.1543
lfoot -12.7238 -9.68204
ltoes -4.45864
173
root 16.2151 17.6613 0.038352 1092.62 -64.6242 -331.719
lowerback 63.0942 -0.186861 11.184
upperback 20.6299 3.08926 -0.422281
thorax 2.68261 1.99208 -6.2953
lowerneck 8.78177 -6.54402 11.9898
upperneck -19.3939 -7.89993 -3.0998
head -8.07931 -4.50466 -2.1828
rclavicle -5.40694e-014 3.97569e-014
rhumerus 77.9218 -3.15156 -55.1426
rradius 4.0305
rwrist 7.7709
rhand -48.8434 41.12
rfingers 7.12502
rthumb -21.4786 12.2908
lclavicle -5.40694e-014 3.97569e-014
lhumerus -5.91901 -27.1087 88.7855
lradius 50.3626
lwrist 1.26398
lhand -29.2843 -15.7489
lfingers 7.12502
lthumb -2.62624 14.2146
rfemur -77.8475 -18.1585 14.8011
rtibia 63.5496
rfoot -18.911 9.13563
rtoes -5.81295
lfemur -73.8462 -4.06989 -24.6855
ltibia 56.1721
lfoot -12.7663 -9.69761
ltoes -4.46096
174
root 16.2082 17.661 0.0406377 1092.56 -64.6184 -331.69
lowerback 63.3006 -0.193399 11.1848
upperback 20.5894 3.1069 -0.40801
thorax 2.64098 1.99535 -6.28064
lowerneck 8.66965 -6.55101 11.9549
upperneck -19.4048 -7.92535 -3.0619
head -8.06178 -4.5211 -2.16514
rclavicle 4.13472e-014 -6.83819e-014
rhumerus 78.0777 -3.1251 -54.4472
rradius 3.99147
rwrist 9.24079
rhand -48.261 40.6818
rfingers 7.12502
rthumb -20.9192 11.7897
lclavicle 4.13472e-014 -6.83819e-014
lhumerus -5.87739 -27.1817 88.7327
lradius 50.3672
lwrist 1.28761
lhand -29.4231 -15.67
lfingers 7.12502
lthumb -2.76032 14.2919
rfemur -77.776 -18.1601 14.7664
rtibia 63.5733
rfoot -18.9688 9.11835
rtoes -5.89451
lfemur -73.7839 -4.08524 -24.6917
ltibia 56.2001
lfoot -12.8246 -9.66917
ltoes -4.61588
175
root 16.202 17.6594 0.0428632 1092.41 -64.5998 -331.55
lowerback 63.4819 -0.221877 11.1872
upperback 20.5443 3.10253 -0.41537
thorax 2.59246 1.99259 -6.28376
lowerneck 8.55775 -6.5567 11.9212
upperneck -19.4103 -7.94784 -3.02234
head -8.04224 -4.53606 -2.14755
rclavicle 1.04958e-013 1.74931e-014
rhumerus 78.27 -3.10088 -53.7604
rradius 3.89043
rwrist 10.781
rhand -47.5681 40.1972
rfingers 7.12502
rthumb -20.2534 11.2331
lclavicle 1.04958e-013 1.74931e-014
lhumerus -5.84333 -27.2195 88.6907
lradius 50.3649
lwrist 1.23183
lhand -29.5425 -15.5682
lfingers 7.12502
lthumb -2.87565 14.3922
rfemur -77.7353 -18.1633 14.6564
rtibia 63.6036
rfoot -19.0109 9.09859
rtoes -5.85151
lfemur -73.7489 -4.12167 -24.7504
ltibia 56.2255
lfoot -12.8774 -9.67566
ltoes -4.62149
176
root 16.1956 17.6587 0.0449569 1092.35 -64.5797 -331.507
lowerback 63.6816 -0.261182 11.2141
upperback 20.4932 3.10051 -0.432439
thorax 2.54101 1.99328 -6.3081
lowerneck 8.47475 -6.5627 11.8987
upperneck -19.458 -7.95913 -2.95287
head -8.04069 -4.54988 -2.12169
rclavicle 5.40694e-014 4.45278e-014
rhumerus 78.4835 -3.09575 -53.0875
rradius 3.76977
rwrist 12.2897
rhand -46.8662 39.9007
rfingers 7.12502
rthumb -19.5787 10.8665
lclavicle 5.40694e-014 4.45278e-014
lhumerus -5.81413 -27.2213 88.6207
lradius 50.358
lwrist 1.12959
lhand -29.6417 -15.5206
lfingers 7.12502
lthumb -2.97147 14.4384
rfemur -77.6788 -18.1612 14.5966
rtibia 63.633
rfoot -19.0835 9.07778
rtoes -5.8812
lfemur -73.7187 -4.14614 -24.7684
ltibia 56.261
lfoot -12.9272 -9.66987
ltoes -4.68758
177
root 16.1892 17.6571 0.0477543 1092.26 -64.57 -331.441
lowerback 63.9032 -0.294418 11.2477
upperback 20.4415 3.11026 -0.44519
thorax 2.49164 1.9996 -6.33385
lowerneck 8.33326 -6.58155 11.9059
upperneck -19.4304 -8.00104 -2.93456
head -8.00915 -4.57461 -2.11668
rclavicle 1.27222e-014 1.27222e-014
rhumerus 78.6974 -3.09796 -52.4
rradius 3.63993
rwrist 13.8326
rhand -46.1793 39.7844
rfingers 7.12502
rthumb -18.9182 10.6844
lclavicle 1.27222e-014 1.27222e-014
lhumerus -5.7716 -27.2185 88.5742
lradius 50.3416
lwrist 1.02745
lhand -29.6982 -15.4781
lfingers 7.12502
lthumb -3.02601 14.4802
rfemur -77.6225 -18.1598 14.5342
rtibia 63.6721
rfoot -19.1509 9.04244
rtoes -6.03909
lfemur -73.6673 -4.17031 -24.7923
ltibia 56.2937
lfoot -12.9785 -9.66576
ltoes -4.69601
